<svg width="82" height="83" viewBox="0 0 82 83" fill="none" xmlns="http://www.w3.org/2000/svg">
<g filter="url(#filter0_d_20_5032)">
<circle cx="41" cy="41.4321" r="29" fill="white"/>
</g>
<path d="M40.9999 51.3488C46.4767 51.3488 50.9166 46.9089 50.9166 41.4321C50.9166 35.9553 46.4767 31.5154 40.9999 31.5154C35.5231 31.5154 31.0833 35.9553 31.0833 41.4321C31.0833 46.9089 35.5231 51.3488 40.9999 51.3488Z" stroke="#37474F" stroke-width="2" stroke-linecap="round" stroke-linejoin="round"/>
<path d="M41.0001 44.2655C42.5649 44.2655 43.8334 42.997 43.8334 41.4321C43.8334 39.8673 42.5649 38.5988 41.0001 38.5988C39.4353 38.5988 38.1667 39.8673 38.1667 41.4321C38.1667 42.997 39.4353 44.2655 41.0001 44.2655Z" fill="#37474F" stroke="#37474F" stroke-width="2" stroke-linecap="round" stroke-linejoin="round"/>
<path d="M41 54.1821V48.5154" stroke="#37474F" stroke-width="2" stroke-linecap="round" stroke-linejoin="round"/>
<path d="M41 28.6821V34.3488" stroke="#37474F" stroke-width="2" stroke-linecap="round" stroke-linejoin="round"/>
<path d="M33.9167 41.4321H28.25" stroke="#37474F" stroke-width="2" stroke-linecap="round" stroke-linejoin="round"/>
<path d="M53.7499 41.4321H48.0833" stroke="#37474F" stroke-width="2" stroke-linecap="round" stroke-linejoin="round"/>
<defs>
<filter id="filter0_d_20_5032" x="0" y="0.432129" width="82" height="82" filterUnits="userSpaceOnUse" color-interpolation-filters="sRGB">
<feFlood flood-opacity="0" result="BackgroundImageFix"/>
<feColorMatrix in="SourceAlpha" type="matrix" values="0 0 0 0 0 0 0 0 0 0 0 0 0 0 0 0 0 0 127 0" result="hardAlpha"/>
<feOffset/>
<feGaussianBlur stdDeviation="6"/>
<feComposite in2="hardAlpha" operator="out"/>
<feColorMatrix type="matrix" values="0 0 0 0 0 0 0 0 0 0 0 0 0 0 0 0 0 0 0.2 0"/>
<feBlend mode="normal" in2="BackgroundImageFix" result="effect1_dropShadow_20_5032"/>
<feBlend mode="normal" in="SourceGraphic" in2="effect1_dropShadow_20_5032" result="shape"/>
</filter>
</defs>
</svg>
